<?xml version="1.0" encoding="utf-8"?>
<!-- Generator: Adobe Illustrator 24.3.0, SVG Export Plug-In . SVG Version: 6.00 Build 0)  -->
<svg version="1.1" id="Layer_1" xmlns="http://www.w3.org/2000/svg" xmlns:xlink="http://www.w3.org/1999/xlink" x="0px" y="0px"
	 viewBox="0 0 181.5 52.9" style="enable-background:new 0 0 181.5 52.9;" xml:space="preserve">
<style type="text/css">
	.st0{fill:#0052CC;}
	.st1{enable-background:new    ;}
	.st2{fill:#172B4D;}
</style>
<g>
	<g>
		<path class="st0" d="M29.7,16.2c1.4,1.4,2.1,3.5,2.1,6.2v10.8h-5.4v-9.9c0-1.5-0.3-2.6-0.9-3.3c-0.6-0.7-1.5-1.1-2.6-1.1
			c-1.3,0-2.3,0.4-3,1.2c-0.7,0.8-1.1,2.1-1.1,3.7v9.4h-5.4v-9.9c0-3-1.2-4.4-3.6-4.4c-1.3,0-2.3,0.4-3,1.2
			c-0.7,0.8-1.1,2.1-1.1,3.7v9.4H0V14.4h5.2v2.2c0.7-0.8,1.5-1.4,2.6-1.8s2.1-0.6,3.3-0.6c1.3,0,2.5,0.3,3.6,0.8s1.9,1.3,2.6,2.3
			c0.8-1,1.7-1.7,2.9-2.3c1.2-0.5,2.5-0.8,3.9-0.8C26.5,14.1,28.3,14.8,29.7,16.2z"/>
		<path class="st0" d="M51,16.2c1.6,1.4,2.3,3.5,2.3,6.3v10.7h-5.1v-2.3c-1,1.7-2.9,2.6-5.7,2.6c-1.4,0-2.7-0.2-3.8-0.7
			s-1.9-1.2-2.4-2c-0.6-0.9-0.8-1.8-0.8-2.9c0-1.7,0.7-3.1,2-4.1s3.3-1.5,6.1-1.5h4.3c0-1.2-0.4-2.1-1.1-2.7c-0.7-0.6-1.8-1-3.2-1
			c-1,0-2,0.2-3,0.5s-1.8,0.7-2.5,1.3l-2-3.8c1-0.7,2.2-1.3,3.7-1.7c1.4-0.4,2.9-0.6,4.4-0.6C47.2,14.1,49.4,14.8,51,16.2z
			 M46.3,29.2c0.7-0.4,1.2-1.1,1.5-1.9v-1.9h-3.7c-2.2,0-3.3,0.7-3.3,2.2c0,0.7,0.3,1.2,0.8,1.7c0.5,0.4,1.3,0.6,2.2,0.6
			C44.8,29.8,45.6,29.6,46.3,29.2z"/>
		<path class="st0" d="M70.4,32.3c-0.5,0.4-1.2,0.7-2,0.9s-1.6,0.3-2.5,0.3c-2.2,0-4-0.6-5.2-1.7c-1.2-1.1-1.8-2.8-1.8-5V19H56v-4.2
			h2.9v-4.6h5.4v4.6H69V19h-4.7v7.6c0,0.8,0.2,1.4,0.6,1.8s1,0.6,1.7,0.6c0.9,0,1.6-0.2,2.2-0.7L70.4,32.3z"/>
		<path class="st0" d="M85.2,32.3c-0.5,0.4-1.2,0.7-2,0.9s-1.6,0.3-2.5,0.3c-2.2,0-4-0.6-5.2-1.7c-1.2-1.1-1.8-2.8-1.8-5V19h-2.9
			v-4.2h2.9v-4.6h5.4v4.6h4.7V19h-4.7v7.6c0,0.8,0.2,1.4,0.6,1.8s1,0.6,1.7,0.6c0.9,0,1.6-0.2,2.2-0.7L85.2,32.3z"/>
		<path class="st0" d="M104.8,16.4c1.4,1.4,2.1,3.4,2.1,6.1v10.7h-4.4V23.1c0-1.6-0.4-2.9-1.1-3.7c-0.8-0.8-1.9-1.2-3.3-1.2
			c-1.6,0-2.9,0.5-3.8,1.4c-0.9,1-1.4,2.4-1.4,4.2v9.4h-4.4V7.3h4.4v9.4c0.7-0.8,1.6-1.3,2.7-1.8c1.1-0.4,2.2-0.6,3.5-0.6
			C101.5,14.3,103.4,15,104.8,16.4z"/>
		<path class="st0" d="M130.2,25.3h-14.6c0.2,1.4,0.9,2.5,2,3.3s2.4,1.2,4,1.2c2,0,3.7-0.7,5.1-2l2.3,2.7c-0.8,1-1.9,1.8-3.2,2.3
			c-1.3,0.5-2.7,0.8-4.3,0.8c-2,0-3.9-0.4-5.4-1.2s-2.8-1.9-3.6-3.4c-0.8-1.4-1.3-3.1-1.3-4.9s0.4-3.4,1.2-4.9
			c0.8-1.4,2-2.6,3.4-3.4s3.1-1.2,5-1.2c1.8,0,3.4,0.4,4.9,1.2c1.4,0.8,2.5,1.9,3.3,3.4c0.8,1.4,1.2,3.1,1.2,5
			C130.2,24.3,130.2,24.7,130.2,25.3z M117.3,19.1c-1,0.8-1.5,1.9-1.8,3.3h10.6c-0.2-1.3-0.8-2.4-1.7-3.3c-1-0.8-2.1-1.3-3.6-1.3
			C119.4,17.8,118.2,18.3,117.3,19.1z"/>
		<path class="st0" d="M150.7,16.4c1.4,1.4,2.1,3.4,2.1,6.1v10.7h-4.4V23.1c0-1.6-0.4-2.9-1.1-3.7c-0.8-0.8-1.9-1.2-3.3-1.2
			c-1.6,0-2.9,0.5-3.8,1.4c-0.9,1-1.4,2.4-1.4,4.2v9.4h-4.4V14.5h4.2V17c0.7-0.9,1.6-1.5,2.7-2c1.1-0.4,2.3-0.7,3.7-0.7
			C147.4,14.3,149.3,15,150.7,16.4z"/>
		<path class="st0" d="M159.7,32.9c-1.4-0.4-2.6-0.9-3.5-1.5l1.7-3.3c0.8,0.6,1.8,1,3,1.3s2.3,0.5,3.5,0.5c2.6,0,3.9-0.7,3.9-2.1
			c0-0.7-0.3-1.1-1-1.4c-0.7-0.2-1.7-0.5-3.2-0.7s-2.8-0.5-3.8-0.8s-1.8-0.8-2.5-1.6c-0.7-0.8-1.1-1.8-1.1-3.2
			c0-1.8,0.7-3.2,2.2-4.2c1.5-1.1,3.5-1.6,6-1.6c1.3,0,2.6,0.1,3.8,0.4c1.3,0.3,2.3,0.7,3.1,1.2l-1.7,3.3c-1.6-0.9-3.4-1.4-5.3-1.4
			c-1.3,0-2.2,0.2-2.9,0.6s-1,0.9-1,1.5c0,0.7,0.3,1.2,1.1,1.5c0.7,0.3,1.8,0.6,3.3,0.8c1.5,0.2,2.7,0.5,3.7,0.8s1.8,0.8,2.5,1.5
			s1,1.7,1,3.1c0,1.7-0.8,3.1-2.3,4.2c-1.5,1-3.6,1.6-6.2,1.6C162.6,33.5,161.2,33.3,159.7,32.9z"/>
		<path class="st0" d="M175.7,32.5c-0.7-0.7-1-1.5-1-2.4c0-1,0.3-1.8,1-2.4s1.4-0.9,2.4-0.9s1.8,0.3,2.4,0.9c0.6,0.6,1,1.4,1,2.4
			s-0.3,1.8-1,2.4c-0.7,0.7-1.4,1-2.4,1S176.3,33.2,175.7,32.5z"/>
	</g>
	<g class="st1">
		<path class="st2" d="M0.2,45.6c-0.1,0-0.1,0-0.1,0v-0.1v-4.6c0-0.1,0-0.1,0-0.1l0.1-0.1h2.9c0.1,0,0.1,0,0.1,0.1v0.1V41
			c0,0.1,0,0.1,0,0.1H3.1H0.7v1.5H3c0.1,0,0.1,0,0.1,0v0.1V43c0,0.1,0,0.1,0,0.1L3,43.2H0.7v1.6h2.5c0.1,0,0.1,0,0.1,0v0.1v0.3
			c0,0.1,0,0.1,0,0.1H3.2L0.2,45.6L0.2,45.6z"/>
		<path class="st2" d="M6.3,45.6L6.3,45.6L6.3,45.6c-0.1-0.1-0.1-0.1-0.1-0.2l0,0L7.8,43l-1.5-2.2v-0.1v-0.1h0.1h0.4
			c0.1,0,0.1,0,0.1,0L7,40.7l1.2,1.8l1.2-1.8c0,0,0-0.1,0.1-0.1s0.1,0,0.1,0H10h0.1v0.1v0.1L8.7,43l1.6,2.3l0,0c0,0,0,0,0,0.1v0.1
			h-0.1H9.8H9.7l-0.1-0.1l-1.3-1.8L7,45.4l-0.1,0.1H6.8L6.3,45.6L6.3,45.6z"/>
		<path class="st2" d="M13.6,45.6c-0.1,0-0.1,0-0.1,0v-0.1v-4.6c0-0.1,0-0.1,0-0.1l0.1-0.1h1.8c0.3,0,0.7,0.1,0.9,0.2
			c0.3,0.1,0.5,0.3,0.6,0.5s0.2,0.5,0.2,0.8S17,42.7,16.9,43c-0.1,0.2-0.3,0.4-0.6,0.5c-0.3,0.1-0.6,0.2-0.9,0.2h-1.3v1.8
			c0,0.1,0,0.1-0.1,0.1h-0.1C14,45.6,13.6,45.6,13.6,45.6z M14.1,43h1.2c0.3,0,0.6-0.1,0.8-0.2c0.2-0.2,0.3-0.4,0.3-0.7
			s-0.1-0.5-0.3-0.7c-0.2-0.2-0.4-0.2-0.8-0.2h-1.2V43z"/>
		<path class="st2" d="M20.5,45.6c-0.1,0-0.1,0-0.1,0v-0.1v-4.6c0-0.1,0-0.1,0-0.1l0.1-0.1h2.9c0.1,0,0.1,0,0.1,0.1v0.1v0.3
			c0,0.1,0,0.1,0,0.1h-0.1H21v1.5h2.2c0.1,0,0.1,0,0.1,0v0.1v0.3c0,0.1,0,0.1,0,0.1l-0.1,0.1H21V45h2.5c0.1,0,0.1,0,0.1,0v0.1v0.3
			c0,0.1,0,0.1,0,0.1h-0.1L20.5,45.6L20.5,45.6z"/>
		<path class="st2" d="M27.1,45.6c-0.1,0-0.1,0-0.1,0v-0.1v-4.6c0-0.1,0-0.1,0-0.1l0.1-0.1h1.7c0.5,0,1,0.1,1.3,0.4
			c0.3,0.3,0.5,0.6,0.5,1.1c0,0.4-0.1,0.7-0.3,0.9c-0.2,0.2-0.4,0.4-0.7,0.5l1.1,1.9v0.1c0,0,0,0.1-0.1,0.1h-0.1h-0.3
			c-0.1,0-0.1,0-0.2-0.1l-0.1-0.1l-1-1.8h-1.2v1.8c0,0.1,0,0.1,0,0.1h-0.1C27.4,45.6,27.1,45.6,27.1,45.6z M27.6,43h1.2
			c0.4,0,0.6-0.1,0.8-0.2c0.2-0.2,0.3-0.4,0.3-0.7s-0.1-0.5-0.3-0.7c-0.2-0.2-0.4-0.2-0.8-0.2h-1.2V43L27.6,43z"/>
		<path class="st2" d="M34,45.6C33.9,45.6,33.9,45.6,34,45.6L34,45.6l-0.1-4.7c0-0.1,0-0.1,0-0.1l0.1-0.1h0.4c0.1,0,0.1,0,0.1,0.1
			s0,0.1,0,0.1v4.6c0,0.1,0,0.1,0,0.1h-0.1H34z"/>
		<path class="st2" d="M38.3,45.6C38.2,45.6,38.2,45.6,38.3,45.6L38.3,45.6l-0.1-4.7c0-0.1,0-0.1,0-0.1l0.1-0.1h2.9
			c0.1,0,0.1,0,0.1,0.1s0,0.1,0,0.1v0.3c0,0.1,0,0.1,0,0.1h-0.1h-2.4v1.5H41c0.1,0,0.1,0,0.1,0v0.1v0.3c0,0.1,0,0.1,0,0.1L41,43.4
			h-2.2V45h2.5c0.1,0,0.1,0,0.1,0v0.1v0.3c0,0.1,0,0.1,0,0.1h-0.1L38.3,45.6L38.3,45.6z"/>
		<path class="st2" d="M44.9,45.6C44.8,45.6,44.8,45.6,44.9,45.6L44.9,45.6l-0.1-4.7c0-0.1,0-0.1,0-0.1l0.1-0.1h0.3
			c0.1,0,0.1,0,0.1,0s0,0.1,0.1,0.1l2.3,3.6v-3.5c0-0.1,0-0.1,0-0.1l0.1-0.1h0.3c0.1,0,0.1,0,0.1,0.1l0.1,0.1v4.6
			c0,0.1,0,0.1-0.1,0.1l-0.1,0.1h-0.3c-0.1,0-0.1,0-0.1,0s0-0.1-0.1-0.1L45.3,42v3.5c0,0.1,0,0.1-0.1,0.1h-0.1H44.9L44.9,45.6z"/>
		<path class="st2" d="M53.8,45.6c-0.4,0-0.8-0.1-1.1-0.2c-0.3-0.2-0.5-0.4-0.6-0.7c-0.2-0.3-0.2-0.6-0.2-1c0-0.2,0-0.4,0-0.6
			s0-0.4,0-0.6c0-0.4,0.1-0.7,0.2-1c0.1-0.3,0.4-0.5,0.6-0.7c0.3-0.2,0.6-0.2,1.1-0.2c0.3,0,0.6,0,0.9,0.1s0.4,0.2,0.6,0.4
			c0.2,0.2,0.3,0.3,0.4,0.5c0.1,0.2,0.1,0.4,0.1,0.6v0.1h-0.1h-0.4h-0.1l-0.1-0.1c-0.1-0.4-0.2-0.6-0.4-0.8
			c-0.2-0.1-0.5-0.2-0.8-0.2c-0.4,0-0.7,0.1-0.9,0.3s-0.3,0.6-0.4,1c0,0.4,0,0.8,0,1.2c0,0.5,0.1,0.8,0.4,1c0.2,0.2,0.5,0.3,0.9,0.3
			c0.3,0,0.6-0.1,0.8-0.2c0.2-0.1,0.4-0.4,0.4-0.8c0-0.1,0-0.1,0.1-0.1s0.1,0,0.1,0h0.4h0.1V44c0,0.2-0.1,0.4-0.1,0.6
			c-0.1,0.2-0.2,0.4-0.4,0.5c-0.2,0.2-0.4,0.3-0.6,0.4C54.4,45.6,54.1,45.6,53.8,45.6z"/>
		<path class="st2" d="M59.2,45.6C59.1,45.6,59.1,45.6,59.2,45.6L59.2,45.6l-0.1-4.7c0-0.1,0-0.1,0-0.1l0.1-0.1h2.9
			c0.1,0,0.1,0,0.1,0.1s0,0.1,0,0.1v0.3c0,0.1,0,0.1,0,0.1h-0.1h-2.4v1.5h2.2c0.1,0,0.1,0,0.1,0v0.1v0.3c0,0.1,0,0.1,0,0.1l-0.1,0.1
			h-2.2V45h2.5c0.1,0,0.1,0,0.1,0v0.1v0.3c0,0.1,0,0.1,0,0.1h-0.1L59.2,45.6L59.2,45.6z"/>
		<path class="st2" d="M69.8,45.6C69.7,45.6,69.7,45.6,69.8,45.6L69.8,45.6l-0.1-4.7c0-0.1,0-0.1,0-0.1l0.1-0.1h0.4
			c0.1,0,0.1,0,0.1,0.1v0.1v4.6c0,0.1,0,0.1,0,0.1h-0.1H69.8L69.8,45.6z"/>
		<path class="st2" d="M74.1,45.6C74,45.6,74,45.6,74.1,45.6L74.1,45.6L74,40.9c0-0.1,0-0.1,0-0.1l0.1-0.1h0.4c0.1,0,0.1,0,0.1,0
			l0.1,0.1l1.5,2.9l1.5-2.9c0,0,0,0,0.1-0.1h0.1h0.3c0.1,0,0.1,0,0.1,0.1s0,0.1,0,0.1v4.6c0,0.1,0,0.1,0,0.1h-0.1h-0.3
			c-0.1,0-0.1,0-0.1,0v-0.1V42l-1.2,2.3c0,0.1-0.1,0.1-0.1,0.1h-0.1H76c-0.1,0-0.1,0-0.1,0l-0.1-0.1L74.6,42v3.5
			c0,0.1,0,0.1-0.1,0.1h-0.1H74.1z"/>
		<path class="st2" d="M82,45.6C81.9,45.6,81.9,45.6,82,45.6L82,45.6l-0.1-4.7c0-0.1,0-0.1,0-0.1l0.1-0.1h0.4c0.1,0,0.1,0,0.1,0
			l0.1,0.1l1.5,2.9l1.5-2.9c0,0,0,0,0.1-0.1h0.1h0.3c0.1,0,0.1,0,0.1,0.1s0,0.1,0,0.1v4.6c0,0.1,0,0.1,0,0.1h-0.1h-0.3
			c-0.1,0-0.1,0-0.1,0v-0.1V42l-1.2,2.3c0,0.1-0.1,0.1-0.1,0.1h-0.1H84c-0.1,0-0.1,0-0.1,0l-0.1-0.1L82.6,42v3.5
			c0,0.1,0,0.1-0.1,0.1h-0.1H82z"/>
		<path class="st2" d="M90,45.6C89.9,45.6,89.9,45.6,90,45.6l-0.2-0.1v-4.6c0-0.1,0-0.1,0-0.1l0.1-0.1h2.9c0.1,0,0.1,0,0.1,0.1v0.1
			v0.3c0,0.1,0,0.1,0,0.1h-0.1h-2.4v1.5h2.2c0.1,0,0.1,0,0.1,0v0.1v0.3c0,0.1,0,0.1,0,0.1l-0.1,0.1h-2.2V45h2.5c0.1,0,0.1,0,0.1,0
			v0.1v0.3c0,0.1,0,0.1,0,0.1h-0.1L90,45.6L90,45.6L90,45.6z"/>
		<path class="st2" d="M96.6,45.6C96.5,45.6,96.5,45.6,96.6,45.6L96.6,45.6l-0.1-4.7c0-0.1,0-0.1,0-0.1l0.1-0.1h1.7
			c0.5,0,1,0.1,1.3,0.4c0.3,0.3,0.5,0.6,0.5,1.1c0,0.4-0.1,0.7-0.3,0.9c-0.2,0.2-0.4,0.4-0.7,0.5l1.1,1.9v0.1v0.1h-0.1h-0.3
			c-0.1,0-0.1,0-0.2-0.1l-0.1-0.1l-1-1.8h-1.2v1.8c0,0.1,0,0.1,0,0.1h-0.1L96.6,45.6L96.6,45.6L96.6,45.6z M97.1,43h1.2
			c0.4,0,0.6-0.1,0.8-0.2s0.3-0.4,0.3-0.7s-0.1-0.5-0.3-0.7c-0.2-0.2-0.4-0.2-0.8-0.2h-1.2V43L97.1,43z"/>
		<path class="st2" d="M105,45.6c-0.4,0-0.8-0.1-1-0.2c-0.3-0.1-0.5-0.3-0.6-0.5c-0.2-0.2-0.2-0.4-0.2-0.6c0,0,0-0.1,0.1-0.1h0.1
			h0.4c0.1,0,0.1,0,0.1,0s0,0.1,0.1,0.1c0,0.1,0.1,0.2,0.2,0.3s0.2,0.2,0.4,0.3c0.2,0.1,0.4,0.1,0.6,0.1c0.4,0,0.7-0.1,0.9-0.2
			c0.2-0.1,0.3-0.3,0.3-0.6c0-0.2-0.1-0.3-0.2-0.4c-0.1-0.1-0.3-0.2-0.5-0.3s-0.5-0.2-0.8-0.3s-0.6-0.2-0.9-0.3
			c-0.2-0.1-0.4-0.3-0.5-0.4c-0.1-0.2-0.2-0.4-0.2-0.7s0.1-0.5,0.2-0.7s0.3-0.4,0.6-0.5c0.3-0.1,0.6-0.2,0.9-0.2s0.6,0,0.8,0.1
			c0.2,0.1,0.4,0.2,0.6,0.3c0.1,0.1,0.3,0.3,0.3,0.4c0.1,0.2,0.1,0.3,0.1,0.4v0.1l-0.1,0.1h-0.4h-0.1l-0.1-0.1
			c0-0.2-0.1-0.4-0.3-0.5c-0.2-0.1-0.4-0.2-0.7-0.2c-0.3,0-0.6,0.1-0.7,0.2c-0.2,0.1-0.3,0.3-0.3,0.6c0,0.2,0,0.3,0.1,0.4
			c0.1,0.1,0.2,0.2,0.4,0.3c0.2,0.1,0.4,0.2,0.8,0.3s0.7,0.2,0.9,0.3c0.2,0.1,0.4,0.3,0.5,0.4s0.2,0.4,0.2,0.7s-0.1,0.6-0.2,0.8
			c-0.2,0.2-0.4,0.4-0.7,0.5C105.7,45.6,105.3,45.6,105,45.6z"/>
		<path class="st2" d="M110.3,45.6C110.2,45.6,110.2,45.6,110.3,45.6L110.3,45.6l-0.1-4.7c0-0.1,0-0.1,0-0.1l0.1-0.1h0.4
			c0.1,0,0.1,0,0.1,0.1v0.1v4.6c0,0.1,0,0.1,0,0.1h-0.1C110.6,45.6,110.3,45.6,110.3,45.6z"/>
		<path class="st2" d="M115.8,45.6c-0.1,0-0.1,0-0.2-0.1l-0.1-0.1l-1.6-4.5v-0.1v-0.1h0.1h0.4c0.1,0,0.1,0,0.1,0.1l0.1,0.1l1.4,4
			l1.4-4c0,0,0-0.1,0.1-0.1s0.1-0.1,0.1-0.1h0.4h0.1v0.1v0.1l-1.6,4.5c0,0.1-0.1,0.1-0.1,0.1s-0.1,0.1-0.2,0.1H115.8z"/>
		<path class="st2" d="M121.5,45.6C121.4,45.6,121.4,45.6,121.5,45.6L121.5,45.6l-0.1-4.7c0-0.1,0-0.1,0-0.1l0.1-0.1h2.9
			c0.1,0,0.1,0,0.1,0.1v0.1v0.3c0,0.1,0,0.1,0,0.1h-0.1H122v1.5h2.2c0.1,0,0.1,0,0.1,0v0.1v0.3c0,0.1,0,0.1,0,0.1l-0.1,0.1H122V45
			h2.5c0.1,0,0.1,0,0.1,0v0.1v0.3c0,0.1,0,0.1,0,0.1h-0.1L121.5,45.6C121.5,45.5,121.5,45.6,121.5,45.6z"/>
		<path class="st2" d="M132.2,45.6c-0.1,0-0.1,0-0.1,0v-0.1v-4.6c0-0.1,0-0.1,0-0.1l0.1-0.1h0.4c0.1,0,0.1,0,0.1,0.1v0.1v4.2h2.3
			c0.1,0,0.1,0,0.1,0v0.1v0.3c0,0.1,0,0.1,0,0.1H135H132.2L132.2,45.6L132.2,45.6z"/>
		<path class="st2" d="M138.5,45.6c-0.1,0-0.1,0-0.1,0v-0.1v-4.6c0-0.1,0-0.1,0-0.1l0.1-0.1h2.9c0.1,0,0.1,0,0.1,0.1v0.1v0.3
			c0,0.1,0,0.1,0,0.1h-0.1H139v1.5h2.2c0.1,0,0.1,0,0.1,0v0.1v0.3c0,0.1,0,0.1,0,0.1l-0.1,0.1H139V45h2.5c0.1,0,0.1,0,0.1,0v0.1v0.3
			c0,0.1,0,0.1,0,0.1h-0.1L138.5,45.6L138.5,45.6L138.5,45.6z"/>
		<path class="st2" d="M144.6,45.6h-0.1v-0.1v-0.1l1.8-4.6c0-0.1,0-0.1,0.1-0.1c0,0,0.1,0,0.2,0h0.5c0.1,0,0.1,0,0.2,0l0.1,0.1
			l1.7,4.6v0.1v0.1H149h-0.4c-0.1,0-0.1,0-0.1,0s0-0.1-0.1-0.1l-0.4-1h-2.3l-0.4,1c0,0,0,0.1-0.1,0.1h-0.1H144.6z M145.7,43.8h1.9
			l-1-2.5L145.7,43.8z"/>
		<path class="st2" d="M152.1,45.6c-0.1,0-0.1,0-0.1,0v-0.1v-4.6c0-0.1,0-0.1,0-0.1l0.1-0.1h1.7c0.5,0,1,0.1,1.3,0.4
			c0.3,0.3,0.5,0.6,0.5,1.1c0,0.4-0.1,0.7-0.3,0.9s-0.4,0.4-0.7,0.5l1.1,1.9v0.1v0.1h-0.1h-0.3c-0.1,0-0.1,0-0.2-0.1l-0.1-0.1
			l-1-1.8h-1.2v1.8c0,0.1,0,0.1,0,0.1h-0.1L152.1,45.6L152.1,45.6L152.1,45.6z M152.7,43h1.2c0.4,0,0.6-0.1,0.8-0.2
			c0.2-0.2,0.3-0.4,0.3-0.7s-0.1-0.5-0.3-0.7s-0.4-0.2-0.8-0.2h-1.2V43L152.7,43z"/>
		<path class="st2" d="M159.1,45.6c-0.1,0-0.1,0-0.1,0v-0.1v-4.6c0-0.1,0-0.1,0-0.1l0.1-0.1h0.3c0.1,0,0.1,0,0.1,0s0,0.1,0.1,0.1
			l2.3,3.6v-3.5c0-0.1,0-0.1,0-0.1l0.1-0.1h0.3c0.1,0,0.1,0,0.1,0.1l0.1,0.1v4.6c0,0.1,0,0.1-0.1,0.1l-0.1,0.1H162
			c-0.1,0-0.1,0-0.1,0s0-0.1-0.1-0.1l-2.3-3.6v3.5c0,0.1,0,0.1,0,0.1h-0.1H159.1L159.1,45.6z"/>
		<path class="st2" d="M166.3,45.6c-0.1,0-0.1,0-0.1,0v-0.1v-4.6c0-0.1,0-0.1,0-0.1l0.1-0.1h0.4c0.1,0,0.1,0,0.1,0.1v0.1v4.6
			c0,0.1,0,0.1,0,0.1h-0.1H166.3z"/>
		<path class="st2" d="M170.6,45.6c-0.1,0-0.1,0-0.1,0v-0.1v-4.6c0-0.1,0-0.1,0-0.1l0.1-0.1h0.3c0.1,0,0.1,0,0.1,0s0,0.1,0.1,0.1
			l2.3,3.6v-3.5c0-0.1,0-0.1,0-0.1l0.1-0.1h0.3c0.1,0,0.1,0,0.1,0.1l0.1,0.1v4.6c0,0.1,0,0.1-0.1,0.1l-0.1,0.1h-0.3
			c-0.1,0-0.1,0-0.1,0s0-0.1-0.1-0.1L171,42v3.5c0,0.1,0,0.1,0,0.1h-0.1H170.6L170.6,45.6z"/>
		<path class="st2" d="M179.5,45.6c-0.4,0-0.8-0.1-1.1-0.2c-0.3-0.2-0.5-0.4-0.7-0.7s-0.2-0.6-0.3-1c0-0.2,0-0.4,0-0.7
			c0-0.2,0-0.5,0-0.7c0-0.4,0.1-0.7,0.3-1s0.4-0.5,0.7-0.7s0.6-0.2,1.1-0.2c0.3,0,0.6,0.1,0.9,0.1c0.2,0.1,0.4,0.2,0.6,0.4
			c0.2,0.1,0.3,0.3,0.4,0.4c0.1,0.2,0.1,0.3,0.1,0.4v0.1h-0.1H181c-0.1,0-0.1,0-0.1,0s0-0.1-0.1-0.1c0-0.1-0.1-0.2-0.2-0.4
			c-0.1-0.1-0.2-0.2-0.4-0.3s-0.4-0.1-0.6-0.1c-0.4,0-0.7,0.1-0.9,0.3s-0.4,0.5-0.4,1c0,0.4,0,0.8,0,1.3s0.1,0.8,0.4,1
			c0.2,0.2,0.5,0.3,0.9,0.3c0.3,0,0.5-0.1,0.7-0.1c0.2-0.1,0.3-0.2,0.5-0.4c0.1-0.2,0.2-0.4,0.2-0.7v-0.3h-1.1c-0.1,0-0.1,0-0.1-0.1
			l-0.1-0.1V43c0-0.1,0-0.1,0.1-0.1h0.1h1.6c0.1,0,0.1,0,0.1,0V43v0.7c0,0.4-0.1,0.7-0.2,1c-0.2,0.3-0.4,0.5-0.7,0.7
			C180.2,45.5,179.9,45.6,179.5,45.6z"/>
	</g>
</g>
</svg>
